<?xml version="1.0" encoding="UTF-8" standalone="no"?>
<svg
   xmlns:dc="http://purl.org/dc/elements/1.1/"
   xmlns:cc="http://creativecommons.org/ns#"
   xmlns:rdf="http://www.w3.org/1999/02/22-rdf-syntax-ns#"
   xmlns:svg="http://www.w3.org/2000/svg"
   xmlns="http://www.w3.org/2000/svg"
   xmlns:sodipodi="http://sodipodi.sourceforge.net/DTD/sodipodi-0.dtd"
   xmlns:inkscape="http://www.inkscape.org/namespaces/inkscape"
   version="1.1"
   viewBox="0 0 22 22"
   id="svg31"
   sodipodi:docname="brightness.svg"
   width="22"
   height="22"
   inkscape:version="1.0.2 (e86c870879, 2021-01-15)">
  <metadata
     id="metadata35">
    <rdf:RDF>
      <cc:Work
         rdf:about="">
        <dc:format>image/svg+xml</dc:format>
        <dc:type
           rdf:resource="http://purl.org/dc/dcmitype/StillImage" />
        <dc:title />
      </cc:Work>
    </rdf:RDF>
  </metadata>
  <sodipodi:namedview
     pagecolor="#ffffff"
     bordercolor="#666666"
     borderopacity="1"
     objecttolerance="10"
     gridtolerance="10"
     guidetolerance="10"
     inkscape:pageopacity="0"
     inkscape:pageshadow="2"
     inkscape:window-width="1812"
     inkscape:window-height="918"
     id="namedview33"
     showgrid="false"
     fit-margin-top="0"
     fit-margin-left="0"
     fit-margin-right="0"
     fit-margin-bottom="0"
     inkscape:zoom="13.611806"
     inkscape:cx="-5.2279498"
     inkscape:cy="9.8854939"
     inkscape:window-x="40"
     inkscape:window-y="45"
     inkscape:window-maximized="0"
     inkscape:current-layer="svg31"
     inkscape:document-rotation="0" />
  <defs
     id="defs3">
    <style
       id="current-color-scheme"
       type="text/css">
            .ColorScheme-Text {
                color:#fcfcfc;
            }
        </style>
  </defs>
  <g
     shape-rendering="auto"
     id="g29"
     transform="matrix(1.5,0,0,1.5,-5.5,-5.5)">
    <path
       d="m 11,7 c -2.2032167,0 -4,1.7967833 -4,4 0,2.203217 1.7967833,4 4,4 2.203217,0 4,-1.796783 4,-4 0,-2.2032167 -1.796783,-4 -4,-4 z m 0,1 c 1.662777,0 3,1.3372234 3,3 0,1.662777 -1.337223,3 -3,3 C 9.3372234,14 8,12.662777 8,11 8,9.3372234 9.3372234,8 11,8 Z"
       class="ColorScheme-Text"
       fill="currentColor"
       color-rendering="auto"
       dominant-baseline="auto"
       image-rendering="auto"
       id="path5" />
    <path
       d="m 10.5,5 v 1 h 1 V 5 Z"
       class="ColorScheme-Text"
       fill="currentColor"
       color-rendering="auto"
       dominant-baseline="auto"
       image-rendering="auto"
       id="path7" />
    <path
       d="m 10.5,16 v 1 h 1 v -1 z"
       class="ColorScheme-Text"
       fill="currentColor"
       color-rendering="auto"
       dominant-baseline="auto"
       image-rendering="auto"
       id="path9" />
    <path
       d="m 5,10.5 v 1 h 1 v -1 z"
       class="ColorScheme-Text"
       fill="currentColor"
       color-rendering="auto"
       dominant-baseline="auto"
       image-rendering="auto"
       id="path11" />
    <path
       d="m 16,10.5 v 1 h 1 v -1 z"
       class="ColorScheme-Text"
       fill="currentColor"
       color-rendering="auto"
       dominant-baseline="auto"
       image-rendering="auto"
       id="path13" />
    <g
       id="g19">
      <path
         d="m 11.000001,7.7500005 v 6.4999985 h 2.166665 l 1.083333,-2.166666 V 9.9166667 L 13.166666,7.7500005 Z"
         class="ColorScheme-Text"
         fill="currentColor"
         color-rendering="auto"
         dominant-baseline="auto"
         image-rendering="auto"
         id="path15" />
      <path
         d="M 10.984375,7.734375 V 7.75 14.265625 h 2.191406 l 1.089844,-2.177734 V 9.9121094 L 13.175781,7.734375 Z m 0.03125,0.03125 h 2.140625 l 1.078125,2.1542969 v 2.1601561 l -1.078125,2.154297 h -2.140625 z"
         class="ColorScheme-Text"
         fill="currentColor"
         color-rendering="auto"
         dominant-baseline="auto"
         image-rendering="auto"
         id="path17" />
    </g>
    <path
       d="M 14.807107,14.1 14.1,14.807107 l 0.707107,0.707107 0.707107,-0.707107 z"
       class="ColorScheme-Text"
       fill="currentColor"
       color-rendering="auto"
       dominant-baseline="auto"
       image-rendering="auto"
       id="path21" />
    <path
       d="M 7.207107,14.1 6.5,14.807107 7.207107,15.514214 7.914214,14.807107 Z"
       class="ColorScheme-Text"
       fill="currentColor"
       color-rendering="auto"
       dominant-baseline="auto"
       image-rendering="auto"
       id="path23" />
    <path
       d="M 14.807107,6.5 14.1,7.207107 14.807107,7.914214 15.514214,7.207107 Z"
       class="ColorScheme-Text"
       fill="currentColor"
       color-rendering="auto"
       dominant-baseline="auto"
       image-rendering="auto"
       id="path25" />
    <path
       d="M 7.207107,6.5 6.5,7.207107 7.207107,7.914214 7.914214,7.207107 Z"
       class="ColorScheme-Text"
       fill="currentColor"
       color-rendering="auto"
       dominant-baseline="auto"
       image-rendering="auto"
       id="path27" />
  </g>
</svg>
