#define close_width 15
#define close_height 15
static unsigned char close_bits[] = {
   0x00, 0x00, 0x00, 0x00, 0x00, 0x00, 0x00, 0x00, 0x30, 0x06, 0x70, 0x07,
   0xe0, 0x03, 0xc0, 0x01, 0xe0, 0x03, 0x70, 0x07, 0x30, 0x06, 0x00, 0x00,
   0x00, 0x00, 0x00, 0x00, 0x00, 0x00 };
